<?xml version="1.0" encoding="UTF-8" standalone="no"?>
<svg width="24px" height="25px" viewBox="0 0 24 25" version="1.1" xmlns="http://www.w3.org/2000/svg" xmlns:xlink="http://www.w3.org/1999/xlink">
    <!-- Generator: Sketch 39.1 (31720) - http://www.bohemiancoding.com/sketch -->
    <title>icon-android</title>
    <desc>Created with Sketch.</desc>
    <defs>
        <polygon id="path-1" points="13.9923718 7.99190579 13.9923718 0 0 0 0 7.99190579 0 15.9838116 13.9923718 15.9838116 13.9923718 7.99190579"></polygon>
    </defs>
    <g id="Page-1" stroke="none" stroke-width="1" fill="none" fill-rule="evenodd">
        <g transform="translate(5.000000, 4.000000)">
            <mask id="mask-2" fill="white">
                <use xlink:href="#path-1"></use>
            </mask>
            <g id="Clip-2"></g>
            <path d="M13.991609,6.15503058 C13.9915192,5.61020207 13.5348141,5.16863802 12.9714038,5.16872479 C12.4080385,5.1683343 11.9513782,5.61067934 11.9515128,6.15555124 L11.9522308,10.2867806 C11.9521859,10.8321731 12.4086667,11.2729562 12.9724359,11.2731298 C13.5358013,11.273043 13.9922372,10.8321731 13.9923718,10.2863467 L13.991609,6.15503058 Z M2.43635897,5.35633636 L2.43792949,11.7585161 C2.4374359,12.3408756 2.9245641,12.8109025 3.52651923,12.8110326 L4.26775641,12.8113364 L4.26860897,14.9972021 C4.26847436,15.5413364 4.72598718,15.9838116 5.28809615,15.9838116 C5.85186538,15.9838116 6.30857051,15.5409893 6.30870513,14.9965079 L6.30816667,12.811076 L7.68555128,12.8108157 L7.68613462,14.9965946 C7.686,15.5404686 8.14378205,15.983638 8.70598077,15.9827702 C9.26970513,15.9831174 9.72667949,15.540295 9.72658974,14.9957269 L9.72596154,12.810512 L10.4698013,12.8099913 C11.0702756,12.8102083 11.55875,12.3394872 11.5588846,11.7571277 L11.5577628,5.35486116 L2.43635897,5.35633636 Z M9.08783974,3.40259876 C8.87537179,3.4028157 8.7024359,3.23624752 8.70248077,3.0300657 C8.70319872,2.82596653 8.87514744,2.65748926 9.08801923,2.65675165 C9.29932051,2.65735909 9.47266026,2.82579298 9.47248077,3.03032603 C9.47297436,3.23603058 9.30021795,3.40264215 9.08783974,3.40259876 L9.08783974,3.40259876 Z M4.90323077,3.40333636 C4.69157051,3.40285909 4.51917308,3.23650785 4.51912821,3.03102025 C4.51921795,2.82631364 4.69121154,2.65800992 4.90354487,2.65805331 C5.11664103,2.65787975 5.28899359,2.82631364 5.28926282,3.03093347 C5.28935256,3.23629091 5.11659615,3.4032062 4.90323077,3.40333636 L4.90323077,3.40333636 Z M9.24758333,1.4603157 L9.95969872,0.20287562 C9.99766026,0.137185537 9.97275641,0.0534892562 9.90383333,0.0163921488 C9.83441667,-0.0191863636 9.74857692,0.00498099174 9.71187179,0.0711483471 L8.99262179,1.34169174 C8.38725641,1.08131777 7.71009615,0.935142149 6.99344872,0.93592314 C6.2786859,0.935359091 5.60170513,1.08088388 4.99898718,1.33978264 L4.27897436,0.0725801653 C4.24146154,0.00571859504 4.15539744,-0.0184487603 4.08737179,0.0179541322 C4.01804487,0.0540099174 3.99278205,0.137836364 4.03114744,0.203396281 L4.74357692,1.45988182 C3.34380128,2.15795826 2.39808333,3.48716281 2.39884615,5.01322066 L11.5890385,5.0123095 C11.5893077,3.4864686 10.6452949,2.16004091 9.24758333,1.4603157 L9.24758333,1.4603157 Z M1.02016026,5.17006983 C0.45675,5.1698095 0.000134615385,5.61224132 0,6.15654917 L0.000762820513,10.2876917 C0.000897435897,10.8338653 0.457692308,11.2745616 1.02114744,11.2744748 C1.58491667,11.2745182 2.04162179,10.8335616 2.04103846,10.2877351 L2.04112821,6.15598512 C2.04090385,5.61180744 1.58361538,5.16967934 1.02016026,5.17006983 L1.02016026,5.17006983 Z" id="Fill-1" fill="#1EBEA5" mask="url(#mask-2)"></path>
        </g>
    </g>
</svg>