<?xml version="1.0" encoding="UTF-8" standalone="no"?>
<svg width="24px" height="24px" viewBox="0 0 24 24" version="1.1" xmlns="http://www.w3.org/2000/svg" xmlns:xlink="http://www.w3.org/1999/xlink">
    <!-- Generator: Sketch 39.1 (31720) - http://www.bohemiancoding.com/sketch -->
    <title>icon-desktop</title>
    <desc>Created with Sketch.</desc>
    <defs></defs>
    <g id="Page-1" stroke="none" stroke-width="1" fill="none" fill-rule="evenodd">
        <path d="M5.40909091,13.4 L18.0909091,13.4 L18.0909091,6.4 L5.40909091,6.4 L5.40909091,13.4 Z M18.0909091,5 L5.40909091,5 C4.63409091,5 4,5.63 4,6.4 L4,14.8 C4,15.57 4.63409091,16.2 5.40909091,16.2 L10.3409091,16.2 L8.93181818,18.3 L8.93181818,19 L14.5681818,19 L14.5681818,18.3 L13.1590909,16.2 L18.0909091,16.2 C18.8659091,16.2 19.5,15.57 19.5,14.8 L19.5,6.4 C19.5,5.63 18.8659091,5 18.0909091,5 L18.0909091,5 Z" fill="#1EBEA5"></path>
    </g>
</svg>